<svg xmlns="http://www.w3.org/2000/svg" viewBox="0 0 64 64">
  <path fill="#38b2ac" d="M32 18.4c-7.2-10.4-14.4-12.8-21.6-7.2-5.4 4.2-6.6 9.6-3.6 16.2 1.8 4 5.4 7.2 10.8 9.6-1.8-11.4 1.8-18.6 10.8-21.6 6.6-2.2 11.4 0 14.4 6.6 1.8 4 1.2 7.2-1.8 9.6-5.4 4.2-12.6 3-21.6-3.6 7.2 10.4 14.4 12.8 21.6 7.2 5.4-4.2 6.6-9.6 3.6-16.2-1.8-4-5.4-7.2-10.8-9.6 1.8 11.4-1.8 18.6-10.8 21.6-6.6 2.2-11.4 0-14.4-6.6-1.8-4-1.2-7.2 1.8-9.6 5.4-4.2 12.6-3 21.6 3.6z">
    <animateTransform attributeName="transform" type="translate" values="0 0; 2 0; 0 0; -2 0; 0 0" dur="4s" repeatCount="indefinite" />
  </path>
</svg>
